<svg width="20" height="22" viewBox="0 0 20 22" fill="none" xmlns="http://www.w3.org/2000/svg">
<path d="M18.8787 15.4745L16.6442 14.1844L18.5806 13.0426C18.9378 12.832 19.0566 12.3717 18.846 12.0146C18.6354 11.6575 18.1752 11.5387 17.8179 11.7492L15.1505 13.3221L11.1286 11L15.1498 8.67824L17.818 10.2509C17.9377 10.3215 18.069 10.3549 18.1985 10.3549C18.4556 10.3549 18.7059 10.2228 18.846 9.98524C19.0565 9.62808 18.9376 9.16783 18.5804 8.95722L16.6437 7.81578L18.8787 6.5254C19.2378 6.31809 19.3608 5.85893 19.1535 5.49988C18.9462 5.14072 18.487 5.01769 18.1279 5.2251L15.8934 6.51529L15.8731 4.26695C15.8694 3.85233 15.5293 3.5173 15.1156 3.52301C14.701 3.52671 14.3679 3.86585 14.3717 4.28046L14.3996 7.37764L10.3779 9.69966V5.05603L13.0743 3.53212C13.4353 3.32811 13.5625 2.87016 13.3585 2.5091C13.1545 2.14814 12.6964 2.02081 12.3355 2.22491L10.3779 3.33132V0.750747C10.3779 0.336135 10.0418 0 9.62719 0C9.21257 0 8.87644 0.336135 8.87644 0.750747V3.33132L6.91889 2.22501C6.55773 2.02091 6.09998 2.14814 5.89587 2.5092C5.69187 2.87016 5.8191 3.32821 6.18006 3.53222L8.87634 5.05613V9.69966L4.85464 7.37764L4.88256 4.28046C4.88637 3.86585 4.55324 3.52671 4.13862 3.52301C4.13632 3.52301 4.13412 3.52301 4.13172 3.52301C3.72031 3.52301 3.38487 3.85464 3.38117 4.26705L3.36085 6.51529L1.12632 5.2251C0.767267 5.01769 0.308111 5.14082 0.100804 5.49988C-0.106502 5.85893 0.0165202 6.31809 0.375578 6.5254L2.6105 7.81578L0.673474 8.95742C0.316319 9.16793 0.1974 9.62818 0.40791 9.98544C0.547949 10.223 0.798298 10.3551 1.05545 10.3551C1.18498 10.3551 1.31621 10.3216 1.43593 10.2511L4.10449 8.67844L8.12579 11.0001L4.10379 13.3223L1.43593 11.7491C1.07898 11.5386 0.61852 11.6573 0.40791 12.0145C0.1973 12.3716 0.316118 12.8319 0.673274 13.0424L2.61 14.1843L0.375477 15.4744C0.0164201 15.6817 -0.106602 16.1409 0.100704 16.4999C0.239742 16.7408 0.492094 16.8754 0.751552 16.8754C0.878879 16.8754 1.00801 16.843 1.12622 16.7747L3.36075 15.4845L3.38107 17.733C3.38477 18.1453 3.72021 18.477 4.13162 18.477C4.13392 18.477 4.13622 18.477 4.13852 18.4769C4.55314 18.4732 4.88627 18.1341 4.88246 17.7194L4.85454 14.6222L8.87634 12.3001V16.9439L6.18006 18.4678C5.8191 18.6718 5.69187 19.1297 5.89587 19.4908C6.03391 19.735 6.28826 19.8723 6.55012 19.8723C6.67525 19.8723 6.80217 19.841 6.91889 19.775L8.87644 18.6687V21.2493C8.87644 21.6639 9.21257 22 9.62719 22C10.0418 22 10.3779 21.6639 10.3779 21.2493V18.6687L12.3355 19.775C12.4522 19.841 12.579 19.8723 12.7042 19.8723C12.9661 19.8723 13.2205 19.735 13.3585 19.4908C13.5625 19.1298 13.4353 18.6718 13.0743 18.4678L10.3779 16.9439V12.3002L14.3996 14.6222L14.371 17.7193C14.3671 18.134 14.7001 18.4732 15.1147 18.477C15.1172 18.4771 15.1195 18.4771 15.1219 18.4771C15.5332 18.4771 15.8686 18.1455 15.8724 17.7333L15.8932 15.4845L18.128 16.7748C18.2463 16.8431 18.3754 16.8755 18.5027 16.8755C18.7622 16.8755 19.0145 16.7408 19.1536 16.5C19.3609 16.141 19.2379 15.6818 18.8787 15.4745Z" fill="#1A62CF"/>
</svg>
