<svg width="24" height="24" viewBox="0 0 24 24" fill="none" xmlns="http://www.w3.org/2000/svg">
<path d="M22.585 2.70996L2.71021 22.5848C2.21153 23.0835 1.40208 23.0835 0.903402 22.5848C0.404722 22.0861 0.404722 21.2767 0.903402 20.778L20.7782 0.90316C21.2769 0.404481 22.0864 0.40448 22.585 0.90316C23.0837 1.40184 23.0837 2.21128 22.585 2.70996Z" fill="white"/>
<path d="M2.71021 0.903485L22.585 20.7783C23.0837 21.277 23.0837 22.0864 22.585 22.5851C22.0864 23.0838 21.2769 23.0838 20.7782 22.5851L0.903404 2.71029C0.404725 2.21161 0.404724 1.40216 0.903404 0.903485C1.40208 0.404805 2.21153 0.404806 2.71021 0.903485Z" fill="white"/>
</svg>
