<svg width="29" height="13" viewBox="0 0 29 13" fill="none" xmlns="http://www.w3.org/2000/svg">
<path d="M6.85938 7.07031H2.35938V10.1172H7.64062V12H0.015625V0.625H7.625V2.52344H2.35938V5.23438H6.85938V7.07031ZM17.625 0.625V8.11719C17.625 9.36198 17.2344 10.3464 16.4531 11.0703C15.6771 11.7943 14.6146 12.1562 13.2656 12.1562C11.9375 12.1562 10.8828 11.8047 10.1016 11.1016C9.32031 10.3984 8.92188 9.43229 8.90625 8.20312V0.625H11.25V8.13281C11.25 8.8776 11.4271 9.42188 11.7812 9.76562C12.1406 10.1042 12.6354 10.2734 13.2656 10.2734C14.5833 10.2734 15.2526 9.58073 15.2734 8.19531V0.625H17.625ZM23.7578 7.83594H21.8906V12H19.5469V0.625H23.7734C25.1172 0.625 26.1536 0.924479 26.8828 1.52344C27.612 2.1224 27.9766 2.96875 27.9766 4.0625C27.9766 4.83854 27.8073 5.48698 27.4688 6.00781C27.1354 6.52344 26.6276 6.9349 25.9453 7.24219L28.4062 11.8906V12H25.8906L23.7578 7.83594ZM21.8906 5.9375H23.7812C24.3698 5.9375 24.8255 5.78906 25.1484 5.49219C25.4714 5.1901 25.6328 4.77604 25.6328 4.25C25.6328 3.71354 25.4792 3.29167 25.1719 2.98438C24.8698 2.67708 24.4036 2.52344 23.7734 2.52344H21.8906V5.9375Z" fill="white"/>
</svg>
