<svg width="41" height="12" viewBox="0 0 41 12" fill="none" xmlns="http://www.w3.org/2000/svg">
<path d="M12.8714 7.88794C12.8545 6.13407 11.3834 4.72582 9.58563 4.74233C7.78833 4.75965 6.34528 6.19409 6.36221 7.94756C6.36345 8.08331 6.37625 8.21503 6.39483 8.34635C6.61159 9.91009 7.98899 11.1077 9.64715 11.092C11.3516 11.0767 12.7343 9.78643 12.8598 8.15864C12.8669 8.06961 12.8722 7.97898 12.8714 7.88794ZM9.3156 5.95119L9.32428 6.86438C9.22188 6.89097 9.1265 6.93165 9.03773 6.98482L8.36844 6.34434C8.63929 6.13931 8.96135 6.00195 9.3156 5.95119ZM7.97454 6.73669L8.64507 7.37797C8.59387 7.46619 8.55465 7.55884 8.52946 7.65793L7.59427 7.6672C7.63886 7.32077 7.7714 7.00456 7.97454 6.73669ZM7.59592 8.21664L8.53813 8.20818C8.5658 8.30647 8.60585 8.39872 8.6587 8.48331L7.99973 9.13829C7.79204 8.87565 7.64918 8.56065 7.59592 8.21664ZM8.40601 9.52016L9.06168 8.868C9.1488 8.91634 9.245 8.95259 9.34492 8.97716L9.354 9.89277C9.0014 9.84886 8.67852 9.71634 8.40601 9.52016ZM11.634 7.62974L10.698 7.6386C10.6715 7.5391 10.6298 7.44645 10.5774 7.36025L11.2347 6.70607C11.4436 6.97032 11.582 7.28372 11.634 7.62974ZM9.87879 5.94595C10.2347 5.99107 10.5592 6.12239 10.8334 6.32138L10.1773 6.97395C10.0877 6.92319 9.99109 6.88412 9.88828 6.85955L9.87879 5.94595ZM9.91718 9.88753L9.90851 8.97193C10.0088 8.94655 10.1034 8.90828 10.1901 8.85753L10.8582 9.49841C10.5894 9.69902 10.2694 9.83718 9.91718 9.88753ZM11.2578 9.10929L10.5844 8.46438C10.6344 8.37817 10.6769 8.28754 10.7029 8.18724L11.6377 8.17878C11.5919 8.5244 11.4614 8.84343 11.2578 9.10929Z" fill="#1A62CF"/>
<path d="M34.8264 4.61269C33.0286 4.63001 31.586 6.06404 31.6029 7.81751C31.6042 7.95366 31.6166 8.08539 31.6351 8.2163C31.8519 9.78004 33.2293 10.9772 34.8875 10.9619C36.5923 10.9466 37.9751 9.65598 38.1002 8.02819C38.1076 7.93836 38.1125 7.84853 38.1117 7.75669C38.0952 6.00322 36.6237 4.59657 34.8264 4.61269ZM34.5559 5.82074L34.5646 6.73393C34.4618 6.76092 34.3668 6.8016 34.2785 6.85397L33.6092 6.21349C33.8796 6.00845 34.2021 5.8719 34.5559 5.82074ZM33.2149 6.60583L33.8858 7.24793C33.835 7.33574 33.795 7.42799 33.7706 7.52748L32.835 7.53675C32.88 7.18992 33.0125 6.8733 33.2149 6.60583ZM32.8366 8.08619L33.7793 8.07773C33.8061 8.17602 33.8466 8.26827 33.8994 8.35326L33.2405 9.00824C33.0332 8.7448 32.8891 8.4302 32.8366 8.08619ZM33.6463 9.38891L34.302 8.73715C34.3891 8.78589 34.4857 8.82174 34.5861 8.84631L34.5947 9.76152C34.2421 9.71761 33.9197 9.58588 33.6463 9.38891ZM36.8751 7.49969L35.9391 7.50815C35.9127 7.40865 35.871 7.31641 35.8185 7.2306L36.4763 6.57643C36.6844 6.83947 36.8227 7.15326 36.8751 7.49969ZM35.1195 5.8151C35.4754 5.85981 35.7995 5.99153 36.0741 6.19053L35.4184 6.8435C35.3288 6.79234 35.2322 6.75326 35.129 6.72829L35.1195 5.8151ZM35.1575 9.75668L35.1488 8.84188C35.2492 8.8161 35.3437 8.77783 35.4308 8.72667L36.0985 9.36756C35.8301 9.56856 35.5101 9.70673 35.1575 9.75668ZM36.4986 8.97803L35.8247 8.33312C35.8751 8.24732 35.918 8.15668 35.9432 8.05679L36.8784 8.04792C36.8326 8.39354 36.7025 8.71298 36.4986 8.97803Z" fill="#1A62CF"/>
<path d="M40.9706 6.1869C40.933 6.10915 40.8636 6.04913 40.7794 6.02376L40.4425 5.91943L40.6795 4.83464C40.7245 4.62799 40.6184 4.41812 40.4214 4.32829L39.9875 4.1297L40.2249 2.80685C40.2678 2.56435 40.1064 2.33313 39.8591 2.28359C37.1621 1.74099 24.0636 -1.67209 15.5758 1.02679C13.0923 1.81591 9.25945 3.24632 9.25945 3.24632C9.25945 3.24632 3.51451 4.19577 0 7.55729L0.314622 8.27269L0.0747329 9.20884C0.0561529 9.28055 0.0718427 9.35587 0.116848 9.4163C0.161853 9.47511 0.232044 9.51176 0.307602 9.51619L6.22183 9.80783L6.48979 9.80501C6.22389 9.38729 6.04057 8.91398 5.96955 8.40361C5.94602 8.23845 5.93446 8.09384 5.93322 7.95245C5.91422 5.9722 7.5505 4.34481 9.58109 4.32547C11.6282 4.32547 13.2806 5.92225 13.3 7.88438C13.3008 7.9879 13.295 8.08981 13.2872 8.19173C13.2438 8.75245 13.0646 9.27692 12.7851 9.73654L31.1442 9.53593L31.6257 9.50532C31.4159 9.1307 31.2726 8.71579 31.2107 8.27269C31.1868 8.10754 31.1756 7.96293 31.1744 7.82154C31.1554 5.84128 32.7917 4.21389 34.8222 4.19456C36.8693 4.19456 38.5221 5.79173 38.5411 7.75386C38.542 7.85739 38.5366 7.9593 38.5288 8.06121C38.5015 8.41771 38.4177 8.75889 38.2901 9.07873L38.5861 9.0598C38.9379 9.03684 39.2538 8.8447 39.428 8.54661L40.2674 8.13775L40.9772 6.43463C41.0098 6.35447 41.0073 6.26505 40.9706 6.1869ZM11.6678 3.41067C11.5927 3.3865 11.5407 3.32004 11.5365 3.2431C11.5324 3.16737 11.577 3.09486 11.6484 3.06344C12.0283 2.89466 12.6633 2.63162 13.544 2.32105V3.87673C12.9243 3.79254 12.1476 3.56455 11.6678 3.41067ZM16.8789 2.85921C16.7728 2.64491 16.5424 2.51641 16.2996 2.53656C15.62 2.59214 14.312 2.76254 14.1522 3.26123C14.0742 3.50493 14.9561 3.90614 14.9561 3.90614C14.9561 3.90614 14.4627 3.93232 13.9445 3.91138V2.18288C14.8116 1.88923 15.8818 1.56294 17.1531 1.23988C18.9793 0.776641 21.5062 0.68077 23.8419 0.812089L24.5595 2.97039C20.4876 3.56495 16.8467 3.70715 16.8467 3.70715L16.933 3.26243C16.9598 3.12668 16.9408 2.98489 16.8789 2.85921ZM25.7915 2.77784L25.171 0.912793C27.2829 1.11581 29.0682 1.49688 29.7648 1.93676C28.503 2.27633 27.1409 2.55307 25.7915 2.77784Z" fill="#1A62CF"/>
</svg>
