<svg width="33" height="39" viewBox="0 0 33 39" fill="none" xmlns="http://www.w3.org/2000/svg">
<path d="M0.911116 34.6522C0.992319 34.7377 1.16193 34.8823 1.27849 34.979C3.39305 36.7752 6.64379 38.9219 9.78123 38.7611C15.0345 38.4882 22.0167 30.5019 24.0317 28.0601C26.0461 25.6176 32.6071 17.1901 32.4644 11.2737C32.4428 10.2874 32.2588 9.24212 31.9169 8.16803C31.1278 5.68863 29.6269 3.45045 28.5221 2.0289C28.5221 2.0289 28.2909 1.72276 28.1796 1.60472C27.8947 1.30743 27.4789 1.07211 26.9085 0.885471C26.6171 0.79031 26.31 0.76965 26.1044 0.76965C25.8751 0.76965 25.4312 0.795471 25.0271 0.965141C24.4744 1.19752 24.0789 1.46383 23.813 1.78251C23.6185 2.01858 19.9087 7.35287 19.8877 7.38681L19.8642 7.42738C19.667 7.71656 19.5132 8.01828 19.4064 8.32516C19.1268 9.12925 19.1157 10.0197 19.3737 10.8333C19.538 11.3505 19.8098 11.816 20.1543 12.1752L21.8962 14.0084C22.0599 14.1803 22.2295 14.4997 22.2538 14.6126C22.2734 14.7313 22.2786 14.814 22.28 14.8671L12.1302 27.1704C12.1053 27.1999 12.0811 27.2147 12.0641 27.2228C12.0484 27.2169 12.0346 27.2095 12.0241 27.2058C11.9429 27.1608 11.6849 26.9484 11.4295 26.6828L9.68628 24.8688C8.77013 23.909 7.34514 23.6708 6.23384 24.2816C5.83765 24.4992 5.54165 24.7972 5.40216 24.9352L5.32358 25.0067C5.28756 25.0422 0.912426 29.5333 0.748055 29.7347C0.336147 30.2341 0.113491 31.0205 0.0663414 32.1381C0.0401459 32.7592 0.202553 33.5382 0.452057 33.9904C0.613808 34.2811 0.764427 34.4987 0.911116 34.6522ZM2.17042 31.2639C2.397 31.0123 6.37136 26.9248 6.57961 26.7108L6.74136 26.5603C6.80226 26.4991 6.94568 26.3553 7.09761 26.2712C7.49576 26.0528 8.01441 26.1384 8.35298 26.4925L10.0982 28.3087C10.3019 28.5211 10.8231 29.0375 11.2573 29.2426C11.5467 29.3783 11.7989 29.4425 12.0916 29.4433C12.6508 29.4211 13.1721 29.1541 13.5657 28.6834L23.8176 16.2562C24.2072 15.7833 24.3316 15.0958 24.1869 14.212C24.0749 13.5289 23.6165 12.789 23.238 12.3906L21.4928 10.5545C21.3756 10.432 21.2826 10.2697 21.2237 10.0868C21.1267 9.78138 21.1313 9.43319 21.2361 9.1322C21.297 8.95663 21.3985 8.81057 21.4319 8.76262C21.4633 8.71688 21.4863 8.67999 21.5046 8.6468C21.8563 8.13557 25.0566 3.54856 25.2426 3.29996C25.2426 3.29996 25.3519 3.19078 25.7141 3.03807C25.7651 3.01668 25.9158 2.98275 26.1037 2.98275C26.2393 2.98275 26.3277 2.99971 26.3597 3.01078C26.7108 3.12586 26.8339 3.22102 26.8365 3.22102C26.9 3.29258 27.0094 3.4416 27.0284 3.46668C28.0362 4.76429 29.3819 6.76198 30.0669 8.91532C30.338 9.76662 30.4834 10.5781 30.4998 11.3305C30.5974 15.3724 26.3002 22.0574 22.5917 26.553C18.8838 31.0492 13.2789 36.3643 9.69087 36.5502C7.10416 36.686 4.32033 34.7908 2.48279 33.2306L2.41206 33.1709C2.37015 33.1362 2.29157 33.0735 2.25751 33.041C2.21102 32.9857 2.16583 32.9031 2.12916 32.8374C2.08463 32.7393 2.02176 32.4346 2.03028 32.2443C2.05844 31.5907 2.16256 31.2882 2.17042 31.2639Z" fill="#49A01F"/>
</svg>
