<svg width="41" height="19" viewBox="0 0 41 19" fill="none" xmlns="http://www.w3.org/2000/svg">
<path d="M6.23899 10.3228C3.82583 10.3228 1.86865 12.2314 1.86865 14.5865C1.86865 14.7686 1.88396 14.9462 1.90755 15.1226C2.17857 17.2238 4.01203 18.8498 6.23899 18.8498C8.52553 18.8498 10.4008 17.1342 10.5903 14.9502C10.6002 14.8299 10.6089 14.7092 10.6089 14.5865C10.6089 12.2314 8.65256 10.3228 6.23899 10.3228ZM4.59587 13.3791L5.26495 14.0322C5.21282 14.1194 5.17185 14.2135 5.1462 14.3136H4.20278C4.25119 13.9656 4.38815 13.6467 4.59587 13.3791ZM4.19864 14.8687H5.14951C5.17599 14.9676 5.21571 15.0604 5.26826 15.1464L4.59753 15.8008C4.38981 15.5331 4.24954 15.2158 4.19864 14.8687ZM5.95513 16.5746C5.5997 16.5262 5.27612 16.3902 5.00303 16.1887L5.66963 15.5384C5.75776 15.5888 5.85376 15.6252 5.95472 15.6502L5.95513 16.5746ZM5.95513 13.5212C5.85128 13.5466 5.75528 13.5874 5.66508 13.639L4.99682 12.9863C5.27157 12.7828 5.59763 12.648 5.95513 12.5995V13.5212ZM6.52367 12.6C6.88117 12.6484 7.20764 12.7832 7.48198 12.9871L6.81331 13.6394C6.72394 13.5878 6.6267 13.547 6.52367 13.5216V12.6ZM6.52367 16.5738V15.6502C6.62463 15.6252 6.72021 15.5876 6.80835 15.5376L7.47536 16.1883C7.20227 16.3898 6.87828 16.5254 6.52367 16.5738ZM7.8821 15.8024L7.2093 15.1456C7.26226 15.0592 7.30447 14.968 7.33136 14.8683H8.27478C8.22389 15.215 8.09024 15.5364 7.8821 15.8024ZM7.33261 14.314C7.30654 14.2135 7.26557 14.1198 7.21385 14.0326L7.88335 13.3795C8.09024 13.6475 8.2272 13.9656 8.27602 14.314H7.33261Z" fill="#1A62CF"/>
<path d="M33.2207 10.3228C30.8079 10.3228 28.8503 12.2314 28.8503 14.5865C28.8503 14.7686 28.8657 14.9462 28.8897 15.1226C29.1607 17.2238 30.9937 18.8498 33.2207 18.8498C35.5076 18.8498 37.3833 17.1342 37.5724 14.9502C37.5819 14.8299 37.591 14.7092 37.591 14.5865C37.591 12.2314 35.6347 10.3228 33.2207 10.3228ZM31.5776 13.3791L32.2471 14.0322C32.1945 14.1194 32.1535 14.2135 32.1275 14.3136H31.1849C31.2333 13.9656 31.3698 13.6467 31.5776 13.3791ZM31.1807 14.8687H32.1316C32.1573 14.9676 32.1978 15.0604 32.2504 15.1464L31.5792 15.8008C31.3715 15.5331 31.2316 15.2158 31.1807 14.8687ZM32.9368 16.5746C32.5818 16.5262 32.2578 16.3902 31.9847 16.1887L32.6517 15.5384C32.7395 15.5888 32.8354 15.6252 32.9364 15.6502V16.5746H32.9368ZM32.9368 13.5212C32.8334 13.5466 32.7374 13.5874 32.6472 13.639L31.9789 12.9863C32.2537 12.7828 32.5797 12.648 32.9368 12.5995V13.5212ZM33.5058 12.6C33.8637 12.6484 34.1893 12.7832 34.4637 12.9871L33.7958 13.6394C33.7056 13.5878 33.6084 13.547 33.5058 13.5216V12.6ZM33.5058 16.5738V15.6502C33.6067 15.6252 33.7027 15.5876 33.7905 15.5376L34.4579 16.1883C34.1844 16.3898 33.8604 16.5254 33.5058 16.5738ZM34.8642 15.8024L34.191 15.1456C34.2444 15.0592 34.2862 14.968 34.3139 14.8683H35.2565C35.206 15.215 35.0728 15.5364 34.8642 15.8024ZM34.3147 14.314C34.2886 14.2135 34.2477 14.1198 34.196 14.0326L34.8659 13.3795C35.0728 13.6475 35.2093 13.9656 35.2577 14.314H34.3147Z" fill="#1A62CF"/>
<path d="M31.4117 0.000425448L19.6872 0.144542C19.3355 0.148579 19.0542 0.430352 19.0587 0.773486C19.0624 1.11137 19.3434 1.38265 19.6877 1.38669C19.6934 1.38669 19.698 1.38669 19.7034 1.38669L31.4278 1.24257C31.7795 1.23853 32.0609 0.956759 32.0567 0.613625C32.0518 0.270492 31.7534 -0.0124925 31.4117 0.000425448Z" fill="#1A62CF"/>
<path d="M26.7744 14.4698H12.9319C12.5802 14.4698 12.2955 14.748 12.2955 15.0911C12.2955 15.4347 12.5802 15.7124 12.9319 15.7124H26.7744C27.1261 15.7124 27.4108 15.4347 27.4108 15.0911C27.4108 14.748 27.1261 14.4698 26.7744 14.4698Z" fill="#1A62CF"/>
<path d="M40.8226 10.9246C40.6749 10.7486 40.4523 10.6469 40.2193 10.6469H39.4956L38.7603 2.79192C38.7198 2.35836 38.3441 2.02855 37.8972 2.03501L17.1967 2.33777C16.8747 2.34261 16.5718 2.48956 16.3741 2.73782L13.6303 6.17845L4.6455 6.72141C4.15682 6.75128 3.70953 6.99954 3.43478 7.39475L2.92873 8.12099C2.92873 8.12099 2.06227 8.4185 1.83014 8.60581C1.62863 8.7685 1.22768 9.44104 1.22768 9.44104C1.15155 9.546 1.14244 9.68447 1.20327 9.7979C1.26368 9.91214 1.3845 9.9836 1.5165 9.9836V10.749H0.768801C0.34385 10.7494 0 11.0853 0 11.499V12.8813C0 13.3948 0.426606 13.8118 0.953761 13.8118H1.46478L2.78184 10.2666C2.90183 9.94363 3.2163 9.72847 3.56802 9.72847H8.1651C8.42578 9.72847 8.67198 9.84715 8.83004 10.0498L11.9268 14.0156H28.0906L30.359 10.2815C30.5092 10.0337 30.7823 9.88187 31.0781 9.88187H35.2991C35.597 9.88187 35.8722 10.0365 36.0224 10.2876L38.2464 14.016H39.0442C39.8829 14.016 40.6054 13.4367 40.7676 12.6334L40.9844 11.5572C41.0312 11.3331 40.9716 11.1014 40.8226 10.9246ZM21.1309 6.97169H16.3608V5.54224H15.3946L16.8404 3.68003C16.9025 3.59969 16.9993 3.55206 17.1023 3.55045L21.941 3.4802V5.54224L21.1309 6.97169ZM29.0187 6.97169H23.8746V3.45195L30.0784 3.36192V5.93744L29.0187 6.97169ZM31.6698 6.97169V3.33851L37.0105 3.261C37.1015 3.25979 37.1768 3.32801 37.1838 3.41642L37.4346 6.97169H31.6698Z" fill="#1A62CF"/>
</svg>
