<svg width="41" height="13" viewBox="0 0 41 13" fill="none" xmlns="http://www.w3.org/2000/svg">
<path d="M7.01387 6.00757C5.31415 6.00757 3.93622 7.35109 3.93622 9.00975C3.93622 9.13815 3.94694 9.26373 3.96345 9.38729C4.15405 10.8673 5.44575 12.0119 7.01387 12.0119C8.62531 12.0119 9.94507 10.8037 10.0787 9.26574C10.0866 9.18081 10.0919 9.09589 10.0919 9.00895C10.0923 7.35109 8.71442 6.00757 7.01387 6.00757ZM5.47216 7.87875L6.10006 8.49094C6.05097 8.57265 6.01302 8.6612 5.98826 8.75498H5.10333C5.14995 8.42775 5.27826 8.13031 5.47216 7.87875ZM5.10086 9.2754H5.99197C6.01755 9.36757 6.05386 9.45531 6.10336 9.53541L5.47463 10.1488C5.27991 9.89886 5.1483 9.60061 5.10086 9.2754ZM6.74777 10.8753C6.41402 10.8306 6.1112 10.7026 5.85501 10.5147L6.48085 9.90369C6.56295 9.95038 6.6533 9.98459 6.74777 10.0091V10.8753ZM6.74777 8.01157C6.65082 8.03653 6.56006 8.07315 6.47549 8.12186L5.84799 7.50967C6.10584 7.31848 6.41154 7.1925 6.74777 7.14702V8.01157ZM7.28038 7.14702C7.61579 7.1925 7.9219 7.31929 8.17975 7.51007L7.55267 8.12186C7.46809 8.07315 7.37692 8.03572 7.28038 8.01157V7.14702ZM7.28038 10.8749V10.0091C7.37486 9.98459 7.46479 9.95038 7.54689 9.90288L8.17356 10.5147C7.91736 10.7022 7.61414 10.8302 7.28038 10.8749ZM8.55559 10.1512L7.92438 9.535C7.97306 9.45491 8.0139 9.36837 8.03907 9.275H8.92358C8.87655 9.60061 8.75031 9.90127 8.55559 10.1512ZM8.03948 8.75538C8.01431 8.6616 7.97677 8.57305 7.92768 8.49134L8.55559 7.87915C8.7499 8.13071 8.8782 8.42815 8.92441 8.75618L8.03948 8.75538Z" fill="#ACACAC"/>
<path d="M32.4313 6.03369C30.7386 6.03369 29.3669 7.37157 29.3669 9.0234C29.3669 9.15099 29.3772 9.27576 29.3933 9.39933C29.5831 10.8724 30.8694 12.0131 32.4309 12.0131C34.0353 12.0131 35.3493 10.8101 35.4822 9.27858C35.49 9.19406 35.4954 9.10953 35.4954 9.0234C35.4962 7.37157 34.1245 6.03369 32.4313 6.03369ZM30.8966 7.89683L31.5221 8.507C31.4734 8.58831 31.4354 8.67645 31.4107 8.76983H30.5295C30.5753 8.44301 30.7031 8.14718 30.8966 7.89683ZM30.5266 9.28743H31.4136C31.4391 9.3796 31.4754 9.46614 31.5245 9.54664L30.8979 10.1584C30.7052 9.90888 30.5736 9.61104 30.5266 9.28743ZM32.1665 10.8809C31.8344 10.8358 31.5332 10.7082 31.2778 10.5203L31.9008 9.9125C31.9825 9.95879 32.0728 9.9934 32.1669 10.0172V10.8809H32.1665ZM32.1665 8.02884C32.0703 8.05339 31.9796 8.09002 31.8958 8.13832L31.2712 7.52895C31.5278 7.33937 31.8323 7.21339 32.1665 7.16791V8.02884ZM32.697 7.16791C33.032 7.21339 33.3361 7.34018 33.5923 7.52935L32.9681 8.13832C32.8839 8.09002 32.7936 8.05259 32.697 8.02884V7.16791ZM32.697 10.8805V10.0172C32.7915 9.9934 32.881 9.95839 32.9631 9.9117L33.5865 10.5203C33.3311 10.7078 33.0295 10.835 32.697 10.8805ZM33.9664 10.1596L33.3381 9.54624C33.3864 9.46614 33.4272 9.38041 33.452 9.28743H34.3324C34.2858 9.61104 34.1603 9.91009 33.9664 10.1596ZM33.4528 8.76943C33.4281 8.67605 33.3909 8.5879 33.3414 8.5066L33.9669 7.89642C34.1603 8.14677 34.2878 8.4426 34.3336 8.76943H33.4528Z" fill="#ACACAC"/>
<path d="M40.9881 6.93653C40.9774 6.54088 40.8515 6.15529 40.6242 5.82606L40.4584 5.58456L39.7335 3.71901C39.5969 3.36683 39.2636 3.12171 38.8795 3.09032C38.1666 3.03156 36.9558 2.9422 35.7998 2.90075C31.7593 0.807387 24.2879 -1.29724 17.9519 0.996558C16.6519 1.46707 12.9377 3.30847 12.9377 3.30847C12.9377 3.30847 6.90618 3.15955 2.60448 4.65641C0.90971 5.24606 -0.159217 6.88743 0.0194183 8.63464C0.0553105 8.98441 0.108117 9.29553 0.160099 9.54669C0.242197 9.94395 0.578429 10.2434 0.991395 10.2881L3.66763 10.5742C3.49931 10.2313 3.38091 9.86063 3.33016 9.46538C3.30871 9.30398 3.29798 9.15466 3.29798 9.00976C3.29798 7.01059 4.96511 5.38412 7.01427 5.38412C9.06384 5.38412 10.7314 7.01099 10.7314 9.00976C10.7314 9.11441 10.7244 9.21664 10.7157 9.31888C10.6765 9.76765 10.5511 10.1931 10.3576 10.5807H28.9411L29.0917 10.5722C28.9267 10.2333 28.8099 9.86667 28.76 9.47746C28.7385 9.31525 28.7282 9.16633 28.7282 9.02385C28.7282 7.03152 30.3892 5.41028 32.4317 5.41028C34.4743 5.41028 36.1356 7.03071 36.1356 9.02385C36.1356 9.1281 36.1286 9.22952 36.1199 9.33135C36.0944 9.62678 36.0279 9.91014 35.9331 10.1806L36.351 10.1561L39.2302 9.78456C39.731 9.71976 40.1729 9.43198 40.4258 9.00533L40.7125 8.52275C40.9101 8.18868 41.0099 7.80752 40.9992 7.42193L40.9881 6.93653ZM30.7889 3.34107H16.6957C16.6957 3.34107 16.7794 3.01546 16.411 2.62222C16.411 2.62222 20.0138 0.354987 25.578 0.921292C27.1089 1.07746 28.9799 1.18331 31.527 2.47491L30.7889 3.34107Z" fill="#ACACAC"/>
</svg>
