<svg width="41" height="16" viewBox="0 0 41 16" fill="none" xmlns="http://www.w3.org/2000/svg">
<path d="M7.87368 9.58203C6.15233 9.58203 4.75629 10.9428 4.75629 12.623C4.75629 12.7533 4.76701 12.8808 4.7835 13.0055C4.97687 14.5055 6.28509 15.6648 7.87327 15.6648C9.50557 15.6648 10.8427 14.4411 10.9779 12.8828C10.9853 12.7968 10.9915 12.7107 10.9915 12.623C10.9919 10.9428 9.59627 9.58203 7.87368 9.58203ZM6.31231 11.477L6.94848 12.0977C6.8986 12.1805 6.86025 12.2702 6.83551 12.3652H5.93917C5.98576 12.0333 6.11564 11.7316 6.31231 11.477ZM5.93588 12.8913H6.8384C6.86396 12.985 6.90148 13.0739 6.95137 13.1552L6.31395 13.777C6.1177 13.524 5.9837 13.2215 5.93588 12.8913ZM7.60404 14.5123C7.26678 14.4673 6.9592 14.3378 6.69987 14.1471L7.33357 13.5284C7.41686 13.5759 7.50839 13.6109 7.60404 13.6354V14.5123ZM7.60404 11.6114C7.50591 11.6363 7.41397 11.6745 7.32862 11.7236L6.69327 11.1037C6.95426 10.9106 7.26431 10.7819 7.60404 10.7365V11.6114ZM8.14374 10.7365C8.4843 10.7819 8.79394 10.9106 9.05451 11.1041L8.41957 11.7236C8.33422 11.6745 8.24228 11.6359 8.14374 11.6114V10.7365ZM8.14374 14.5123V13.6346C8.23981 13.6101 8.33092 13.5755 8.41462 13.5268L9.04874 14.1463C8.78899 14.3378 8.48183 14.4665 8.14374 14.5123ZM9.43548 13.7786L8.796 13.1548C8.84547 13.0731 8.8867 12.9858 8.91227 12.8913H9.80778C9.76037 13.2215 9.63297 13.5256 9.43548 13.7786ZM8.91268 12.3652C8.88794 12.2702 8.8496 12.1805 8.79971 12.0977L9.43589 11.477C9.63297 11.7316 9.76243 12.0333 9.80902 12.3652H8.91268Z" fill="#ACACAC"/>
<path d="M34.6188 9.58203C32.897 9.58203 31.5014 10.9428 31.5014 12.623C31.5014 12.7533 31.5117 12.8808 31.5282 13.0055C31.7212 14.5055 33.0302 15.6648 34.618 15.6648C36.2499 15.6648 37.5869 14.4411 37.7226 12.8828C37.73 12.7968 37.7354 12.7107 37.7354 12.623C37.7362 10.9428 36.341 9.58203 34.6188 9.58203ZM33.057 11.477L33.6932 12.0977C33.6437 12.1805 33.605 12.2702 33.5806 12.3652H32.6839C32.7305 12.0333 32.8603 11.7316 33.057 11.477ZM32.681 12.8913H33.5839C33.6095 12.985 33.6466 13.0739 33.6961 13.1552L33.0591 13.777C32.8624 13.524 32.7284 13.2215 32.681 12.8913ZM34.3487 14.5123C34.0115 14.4673 33.7043 14.3378 33.445 14.1471L34.0787 13.5284C34.1616 13.5759 34.2535 13.6109 34.3487 13.6354V14.5123ZM34.3487 11.6114C34.251 11.6363 34.1587 11.6745 34.0729 11.7236L33.4376 11.1037C33.699 10.9106 34.0086 10.7819 34.3483 10.7365L34.3487 11.6114ZM34.8889 10.7365C35.2286 10.7819 35.5386 10.9106 35.7996 11.1041L35.1643 11.7236C35.0789 11.6745 34.9866 11.6359 34.8889 11.6114V10.7365ZM34.8889 14.5123V13.6346C34.9841 13.6101 35.076 13.5755 35.1589 13.5268L35.793 14.1463C35.5337 14.3378 35.2261 14.4665 34.8889 14.5123ZM36.1802 13.7786L35.5407 13.1548C35.5902 13.0731 35.6314 12.9858 35.6566 12.8913H36.5529C36.5051 13.2215 36.3773 13.5256 36.1802 13.7786ZM35.657 12.3652C35.6322 12.2702 35.5943 12.1805 35.5448 12.0977L36.1806 11.477C36.3777 11.7316 36.5071 12.0333 36.5541 12.3652H35.657Z" fill="#ACACAC"/>
<path d="M40.8552 7.11543C40.8321 6.44369 40.6425 5.78763 40.3031 5.20317L38.0644 1.34927C37.6974 0.718151 37.025 0.314298 36.2824 0.277694C32.5305 0.0942713 21.0265 -0.373136 17.4048 0.576963C14.955 1.22015 8.77294 5.18507 8.77294 5.18507C8.77294 5.18507 1.97123 6.2128 0.673726 9.23928C0.673726 9.23928 0.113823 9.55826 0.0119854 10.376C-0.0403767 10.7968 0.0874362 11.4355 0.228443 11.9709C0.383055 12.5566 0.880701 12.9974 1.49297 13.0904L4.44503 13.5417C4.40092 13.3844 4.36422 13.2247 4.34278 13.0598C4.32423 12.9174 4.31186 12.7718 4.31186 12.6226C4.31186 10.7067 5.90952 9.14837 7.87372 9.14837C9.83832 9.14837 11.436 10.7067 11.436 12.6226C11.436 12.7227 11.4294 12.8209 11.4211 12.9182C11.3915 13.2577 11.3106 13.5823 11.1874 13.8868L11.5345 13.9049L31.1468 13.3872C31.1216 13.2794 31.1019 13.1708 31.087 13.0598C31.068 12.9174 31.0565 12.7718 31.0565 12.6226C31.0565 10.7067 32.6542 9.14837 34.6179 9.14837C36.5826 9.14837 38.1802 10.7067 38.1802 12.6226C38.1802 12.7227 38.1736 12.8209 38.165 12.9182C38.1596 12.9826 38.1481 13.0449 38.1394 13.1085L39.8319 12.7714C40.5299 12.6322 41.0238 12.0232 40.9991 11.3277L40.8552 7.11543ZM29.5681 0.989665L30.0187 5.37854L23.1028 5.65448V0.967541C25.1247 0.922088 27.4328 0.942602 29.5681 0.989665ZM12.1163 5.96824L11.4323 6.00564C11.2463 6.0157 11.076 5.90548 11.0134 5.73413C10.9507 5.56358 11.0113 5.37332 11.161 5.26592C11.563 4.97952 12.0553 4.63721 12.6036 4.27559V5.39544C12.2697 5.67098 12.1163 5.96824 12.1163 5.96824ZM13.8112 4.9409C13.768 4.94251 13.7325 4.95297 13.6913 4.95699V3.58011C15.0857 2.7177 16.666 1.86133 18.0249 1.43213C18.6434 1.23705 19.7714 1.11235 21.1733 1.03794V5.73131L15.2312 5.96824C15.2312 5.96824 15.0251 4.89666 13.8112 4.9409ZM37.8359 4.51533C37.6286 4.86689 37.2509 5.09014 36.8357 5.10703L31.9491 5.30172L31.5113 1.04035C33.5307 1.10028 35.2178 1.17429 36.0725 1.21935C36.4679 1.23986 36.8246 1.4623 37.0089 1.80421L37.857 3.37417C38.0512 3.73337 38.0429 4.16457 37.8359 4.51533Z" fill="#ACACAC"/>
</svg>
