<svg width="23" height="20" viewBox="0 0 23 20" fill="none" xmlns="http://www.w3.org/2000/svg">
<path d="M21.9019 11.0734C21.361 10.8432 20.7617 10.9532 20.3378 11.3607L18.0401 13.57C17.914 14.8748 16.8116 15.8984 15.4742 15.8984H11.6071C11.2511 15.8984 10.9625 15.6099 10.9625 15.2539C10.9625 14.898 11.2511 14.6094 11.6071 14.6094H15.4468C16.1483 14.6094 16.7419 14.0604 16.7627 13.3593C16.7844 12.6308 16.198 12.0312 15.4742 12.0312H11.9741L10.4162 11.2524C9.74874 10.9186 9.00147 10.7422 8.25519 10.7422C7.37962 10.7422 6.5199 10.9803 5.76911 11.4308L4.9469 11.9241V18.0752L9.05854 19.3087C9.11861 19.3268 9.18104 19.3359 9.24377 19.3359H15.7371C16.998 19.3359 18.1678 18.7673 18.9468 17.7759L22.4709 13.2908C22.6695 13.0379 22.7789 12.7216 22.7789 12.4001C22.7789 11.8121 22.4429 11.3037 21.9019 11.0734Z" fill="white"/>
<path d="M3.65784 13.3203V12.2461C3.65784 11.4155 2.98452 10.7422 2.15393 10.7422H1.42346C1.06751 10.7422 0.778931 11.0308 0.778931 11.3867V13.3203H3.65784Z" fill="white"/>
<path d="M0.778931 14.6094V18.6914C0.778931 19.0474 1.06751 19.3359 1.42346 19.3359H2.15393C2.98452 19.3359 3.65784 18.6626 3.65784 17.832V14.6094H0.778931Z" fill="white"/>
<path d="M19.5133 2.64673H18.435C18.1768 2.64673 17.9437 2.80069 17.8423 3.03805L17.5797 3.65258H15.861L15.5985 3.03805C15.4971 2.80069 15.2639 2.64673 15.0058 2.64673H13.9274V3.65258C13.9274 4.00854 13.6388 4.29712 13.2828 4.29712C12.9269 4.29712 12.6383 4.00854 12.6383 3.65258V2.64673H11.1344V5.65454H18.9768C19.1793 5.65454 19.3701 5.55932 19.4919 5.39742L20.0284 4.68405C20.1124 4.57237 20.1578 4.43638 20.1578 4.29664V3.2913C20.1578 2.93531 19.8693 2.64673 19.5133 2.64673Z" fill="white"/>
<path d="M8.70619 0.78448L5.80258 0.0585657C5.22095 -0.0867976 4.61625 0.0413783 4.14368 0.410351C3.67111 0.779324 3.40002 1.33482 3.40002 1.93441V3.50608H5.33362C5.68957 3.50608 5.97815 3.79466 5.97815 4.15061C5.97815 4.50656 5.68957 4.79514 5.33362 4.79514H3.40002V6.36681C3.40002 6.96639 3.67107 7.52189 4.14364 7.89087C4.48859 8.16019 4.90389 8.30126 5.32928 8.30126C5.48667 8.30126 5.64544 8.28197 5.80258 8.24269L8.70619 7.51678C9.37689 7.34907 9.84534 6.7491 9.84534 6.05778V2.24348C9.84534 1.55207 9.37689 0.952144 8.70619 0.78448Z" fill="white"/>
</svg>
