<svg width="24" height="25" viewBox="0 0 24 25" fill="none" xmlns="http://www.w3.org/2000/svg">
<path d="M2.4702 22.254C2.52148 22.308 2.62861 22.3993 2.70223 22.4604C4.03773 23.5949 6.09083 24.9507 8.07238 24.8491C11.3903 24.6767 15.8 19.6327 17.0727 18.0905C18.3449 16.5479 22.4887 11.2253 22.3986 7.48865C22.3849 6.86572 22.2687 6.20552 22.0528 5.52715C21.5544 3.96121 20.6065 2.54762 19.9087 1.64981C19.9087 1.64981 19.7627 1.45645 19.6924 1.3819C19.5125 1.19414 19.2499 1.04552 18.8896 0.927639C18.7056 0.867537 18.5116 0.85449 18.3817 0.85449C18.237 0.85449 17.9565 0.870796 17.7013 0.977957C17.3523 1.12472 17.1025 1.29292 16.9345 1.49419C16.8117 1.64328 14.4687 5.01232 14.4554 5.03375L14.4405 5.05937C14.316 5.24201 14.2189 5.43257 14.1514 5.62639C13.9748 6.13424 13.9678 6.6966 14.1308 7.2105C14.2346 7.53711 14.4062 7.8311 14.6238 8.058L15.7239 9.2158C15.8273 9.32436 15.9345 9.5261 15.9498 9.59738C15.9622 9.6724 15.9655 9.72458 15.9663 9.75812L9.55595 17.5287C9.54024 17.5473 9.52493 17.5566 9.51418 17.5617C9.50425 17.558 9.49557 17.5533 9.48895 17.551C9.43766 17.5226 9.27471 17.3884 9.11341 17.2207L8.01241 16.075C7.43379 15.4688 6.5338 15.3184 5.83192 15.7041C5.58169 15.8416 5.39475 16.0298 5.30665 16.1169L5.25702 16.1621C5.23427 16.1845 2.47103 19.021 2.36721 19.1482C2.10706 19.4636 1.96644 19.9603 1.93666 20.6661C1.92011 21.0584 2.02269 21.5504 2.18027 21.836C2.28242 22.0196 2.37755 22.1571 2.4702 22.254ZM3.26555 20.114C3.40865 19.9551 5.91878 17.3735 6.0503 17.2384L6.15246 17.1433C6.19092 17.1047 6.2815 17.0138 6.37745 16.9607C6.62892 16.8228 6.95649 16.8768 7.17032 17.1005L8.27256 18.2476C8.40119 18.3817 8.73041 18.7079 9.00463 18.8374C9.18744 18.9231 9.34667 18.9637 9.53155 18.9641C9.88476 18.9502 10.214 18.7815 10.4626 18.4842L16.9374 10.6354C17.1835 10.3368 17.2621 9.90256 17.1707 9.34439C17.1 8.91295 16.8105 8.44564 16.5714 8.19405L15.4692 7.03439C15.3951 6.95704 15.3364 6.85454 15.2992 6.739C15.238 6.54611 15.2409 6.32619 15.307 6.1361C15.3455 6.02522 15.4096 5.93296 15.4307 5.90268C15.4505 5.87379 15.465 5.8505 15.4766 5.82953C15.6987 5.50665 17.72 2.60959 17.8374 2.45258C17.8382 2.45211 17.9065 2.38362 18.1352 2.28718C18.1675 2.27367 18.2626 2.25223 18.3813 2.25223C18.4669 2.25223 18.5228 2.26295 18.543 2.26994C18.7647 2.34262 18.8425 2.40273 18.8441 2.40273C18.8842 2.44792 18.9533 2.54203 18.9653 2.55787C19.6018 3.37742 20.4518 4.63912 20.8844 5.99912C21.0556 6.53679 21.1474 7.0493 21.1578 7.52453C21.2194 10.0773 18.5054 14.2994 16.1632 17.1387C13.8214 19.9784 10.2814 23.3354 8.0153 23.4528C6.38159 23.5385 4.62339 22.3416 3.46283 21.3561L3.41817 21.3184C3.3917 21.2965 3.34206 21.2569 3.32055 21.2364C3.29119 21.2015 3.26265 21.1493 3.23949 21.1078C3.21137 21.0458 3.17166 20.8534 3.17704 20.7332C3.19482 20.3204 3.26058 20.1294 3.26555 20.114Z" fill="white"/>
</svg>
