<svg width="30" height="13" viewBox="0 0 30 13" fill="none" xmlns="http://www.w3.org/2000/svg">
<path d="M2.35938 7.99219V12H0.015625V0.625H4.45312C5.30729 0.625 6.05729 0.78125 6.70312 1.09375C7.35417 1.40625 7.85417 1.85156 8.20312 2.42969C8.55208 3.0026 8.72656 3.65625 8.72656 4.39062C8.72656 5.50521 8.34375 6.38542 7.57812 7.03125C6.81771 7.67188 5.76302 7.99219 4.41406 7.99219H2.35938ZM2.35938 6.09375H4.45312C5.07292 6.09375 5.54427 5.94792 5.86719 5.65625C6.19531 5.36458 6.35938 4.94792 6.35938 4.40625C6.35938 3.84896 6.19531 3.39844 5.86719 3.05469C5.53906 2.71094 5.08594 2.53385 4.50781 2.52344H2.35938V6.09375ZM14.6094 6L16.6797 0.625H19.2109L15.2344 10.0078L14.9141 10.625C14.3255 11.651 13.4245 12.1641 12.2109 12.1641L11.3906 12.1328L11.3672 10.25C11.4922 10.2708 11.6953 10.2812 11.9766 10.2812C12.3047 10.2812 12.5677 10.224 12.7656 10.1094C12.9688 9.99479 13.138 9.78385 13.2734 9.47656L13.5625 8.73438L9.57031 0.625H12.0938L14.6094 6ZM29.1953 8.21094C29.1068 9.4349 28.6536 10.3984 27.8359 11.1016C27.0234 11.8047 25.9505 12.1562 24.6172 12.1562C23.1589 12.1562 22.0104 11.6667 21.1719 10.6875C20.3385 9.70312 19.9219 8.35417 19.9219 6.64062V5.94531C19.9219 4.85156 20.1146 3.88802 20.5 3.05469C20.8854 2.22135 21.4349 1.58333 22.1484 1.14062C22.8672 0.692708 23.7005 0.46875 24.6484 0.46875C25.9609 0.46875 27.0182 0.820312 27.8203 1.52344C28.6224 2.22656 29.0859 3.21354 29.2109 4.48438H26.8672C26.8099 3.75 26.6042 3.21875 26.25 2.89062C25.901 2.55729 25.3672 2.39062 24.6484 2.39062C23.8672 2.39062 23.2812 2.67188 22.8906 3.23438C22.5052 3.79167 22.3073 4.65885 22.2969 5.83594V6.69531C22.2969 7.92448 22.4818 8.82292 22.8516 9.39062C23.2266 9.95833 23.8151 10.2422 24.6172 10.2422C25.3411 10.2422 25.8802 10.0781 26.2344 9.75C26.5938 9.41667 26.7995 8.90365 26.8516 8.21094H29.1953Z" fill="white"/>
</svg>
