<svg width="220" height="15" viewBox="0 0 220 15" fill="none" xmlns="http://www.w3.org/2000/svg">
<rect y="15" width="15" height="1.98198" rx="0.990991" transform="rotate(-90 0 15)" fill="#E0E0E0"/>
<rect x="9.90991" y="9" width="9" height="1.98198" rx="0.990991" transform="rotate(-90 9.90991 9)" fill="#E0E0E0"/>
<rect x="19.8198" y="9" width="9" height="1.98198" rx="0.990991" transform="rotate(-90 19.8198 9)" fill="#E0E0E0"/>
<rect x="29.7297" y="9" width="9" height="1.98198" rx="0.990991" transform="rotate(-90 29.7297 9)" fill="#E0E0E0"/>
<rect x="39.6396" y="9" width="9" height="1.98198" rx="0.990991" transform="rotate(-90 39.6396 9)" fill="#E0E0E0"/>
<rect x="49.5496" y="9" width="9" height="1.98198" rx="0.990991" transform="rotate(-90 49.5496 9)" fill="#E0E0E0"/>
<rect x="59.4595" y="9" width="9" height="1.98198" rx="0.990991" transform="rotate(-90 59.4595 9)" fill="#E0E0E0"/>
<rect x="69.3694" y="9" width="9" height="1.98198" rx="0.990991" transform="rotate(-90 69.3694 9)" fill="#E0E0E0"/>
<rect x="79.2793" y="9" width="9" height="1.98198" rx="0.990991" transform="rotate(-90 79.2793 9)" fill="#E0E0E0"/>
<rect x="89.1892" y="9" width="9" height="1.98198" rx="0.990991" transform="rotate(-90 89.1892 9)" fill="#E0E0E0"/>
<rect x="99.0991" y="9" width="9" height="1.98198" rx="0.990991" transform="rotate(-90 99.0991 9)" fill="#E0E0E0"/>
<rect x="109.009" y="15" width="15" height="1.98198" rx="0.990991" transform="rotate(-90 109.009 15)" fill="#E0E0E0"/>
<rect x="118.919" y="9" width="9" height="1.98198" rx="0.990991" transform="rotate(-90 118.919 9)" fill="#E0E0E0"/>
<rect x="128.829" y="9" width="9" height="1.98198" rx="0.990991" transform="rotate(-90 128.829 9)" fill="#E0E0E0"/>
<rect x="138.739" y="9" width="9" height="1.98198" rx="0.990991" transform="rotate(-90 138.739 9)" fill="#E0E0E0"/>
<rect x="148.649" y="9" width="9" height="1.98198" rx="0.990991" transform="rotate(-90 148.649 9)" fill="#E0E0E0"/>
<rect x="158.559" y="9" width="9" height="1.98198" rx="0.990991" transform="rotate(-90 158.559 9)" fill="#E0E0E0"/>
<rect x="168.469" y="9" width="9" height="1.98198" rx="0.990991" transform="rotate(-90 168.469 9)" fill="#E0E0E0"/>
<rect x="178.378" y="9" width="9" height="1.98198" rx="0.990991" transform="rotate(-90 178.378 9)" fill="#E0E0E0"/>
<rect x="188.288" y="9" width="9" height="1.98198" rx="0.990991" transform="rotate(-90 188.288 9)" fill="#E0E0E0"/>
<rect x="198.198" y="9" width="9" height="1.98198" rx="0.990991" transform="rotate(-90 198.198 9)" fill="#E0E0E0"/>
<rect x="208.108" y="9" width="9" height="1.98198" rx="0.990991" transform="rotate(-90 208.108 9)" fill="#E0E0E0"/>
<rect x="218.018" y="15" width="15" height="1.98198" rx="0.990991" transform="rotate(-90 218.018 15)" fill="#E0E0E0"/>
</svg>
