<svg width="30" height="30" viewBox="0 0 30 30" fill="none" xmlns="http://www.w3.org/2000/svg">
<g clip-path="url(#clip0_936_36196)">
<path d="M26 15C26 21.0751 21.0751 26 15 26C8.92488 26 4 21.0751 4 15C4 8.92488 8.92488 4 15 4C21.0751 4 26 8.92488 26 15ZM5.37361 15C5.37361 20.3165 9.68348 24.6264 15 24.6264C20.3165 24.6264 24.6264 20.3165 24.6264 15C24.6264 9.68348 20.3165 5.37361 15 5.37361C9.68348 5.37361 5.37361 9.68348 5.37361 15Z" fill="#ACACAC"/>
<path d="M13.7464 16.7588H11.0806L10.5229 18.3611H9.27979L11.8794 11.4792H12.9523L15.5566 18.3611H14.3089L13.7464 16.7588ZM11.4162 15.7946H13.4108L12.4135 12.9397L11.4162 15.7946Z" fill="#ACACAC"/>
<path d="M20.7491 12.4435H18.6032V18.3611H17.4169V12.4435H15.2899V11.4792H20.7491V12.4435Z" fill="#ACACAC"/>
</g>
<defs>
<clipPath id="clip0_936_36196">
<rect width="22" height="22" fill="white" transform="translate(4 4)"/>
</clipPath>
</defs>
</svg>
