<svg width="31" height="30" viewBox="0 0 31 30" fill="none" xmlns="http://www.w3.org/2000/svg">
<path d="M28.8039 16.2241H1.37705C0.68888 16.2241 0.130371 15.6641 0.130371 14.9741C0.130371 14.2841 0.68888 13.7241 1.37705 13.7241H28.8039C29.4921 13.7241 30.0506 14.2841 30.0506 14.9741C30.0506 15.6641 29.4921 16.2241 28.8039 16.2241Z" fill="white"/>
<path d="M28.8039 6.64063H1.37705C0.68888 6.64063 0.130371 6.08063 0.130371 5.39063C0.130371 4.70062 0.68888 4.14062 1.37705 4.14062H28.8039C29.4921 4.14062 30.0506 4.70062 30.0506 5.39063C30.0506 6.08063 29.4921 6.64063 28.8039 6.64063Z" fill="white"/>
<path d="M28.8039 25.8071H1.37705C0.68888 25.8071 0.130371 25.2471 0.130371 24.5571C0.130371 23.8671 0.68888 23.3071 1.37705 23.3071H28.8039C29.4921 23.3071 30.0506 23.8671 30.0506 24.5571C30.0506 25.2471 29.4921 25.8071 28.8039 25.8071Z" fill="white"/>
</svg>
