<svg width="22" height="18" viewBox="0 0 22 18" fill="none" xmlns="http://www.w3.org/2000/svg">
<path d="M21.9997 9.99872C21.9997 9.57142 21.902 9.16328 21.7256 8.78989C21.7074 8.69497 21.6866 8.60019 21.6606 8.50405L19.7496 3.82746L19.7367 3.78538C19.068 1.81949 18.1167 0 15.7043 0H6.4808C4.00894 0 3.13547 1.86457 2.45219 3.77447L0.453274 8.46246C0.164295 8.91966 0 9.44267 0 9.99872V11.4539C0 11.6789 0.0269321 11.899 0.0781423 12.111C0.0283573 12.2391 0 12.3771 0 12.5226V16.8507C0 17.4854 0.521047 18 1.16378 18H3.57882C4.22121 18 4.74225 17.4854 4.74225 16.8507V14.6863H17.3954V16.8507C17.3954 17.4854 17.9165 18 18.5593 18H20.8361C21.4791 18 22 17.4854 22 16.8507V12.5221C22 12.3771 21.9713 12.2385 21.922 12.1108C21.973 11.8985 22 11.6787 22 11.4537V9.99877H21.9997V9.99872ZM3.87045 4.24399C4.63138 2.12406 5.2433 1.47691 6.4808 1.47691H15.7037C16.9322 1.47691 17.6162 2.1987 18.3112 4.23487L19.7058 7.02544C19.2504 6.85893 18.7493 6.76653 18.2229 6.76653H3.77683C3.30281 6.76653 2.84983 6.8418 2.4319 6.97802L3.87045 4.24399ZM5.06839 12.0066H2.52026C2.06148 12.0066 1.6894 11.6388 1.6894 11.1859C1.6894 10.7327 2.06148 10.3652 2.52026 10.3652H5.06839C5.52736 10.3652 5.89945 10.7327 5.89945 11.1859C5.89945 11.6388 5.52712 12.0066 5.06839 12.0066ZM14.0697 11.8422H8.14272C7.85212 11.8422 7.61666 11.6096 7.61666 11.3228C7.61666 11.0354 7.85212 10.8029 8.14272 10.8029H14.0697C14.3607 10.8029 14.5961 11.0354 14.5961 11.3228C14.5961 11.6096 14.3607 11.8422 14.0697 11.8422ZM19.4152 12.0066H16.8672C16.408 12.0066 16.0361 11.6388 16.0361 11.1859C16.0361 10.7327 16.4083 10.3652 16.8672 10.3652H19.4152C19.8744 10.3652 20.2466 10.7327 20.2466 11.1859C20.2466 11.6388 19.8744 12.0066 19.4152 12.0066Z" fill="white"/>
</svg>
