<svg width="30" height="32" viewBox="0 0 30 32" fill="none" xmlns="http://www.w3.org/2000/svg">
<path fill-rule="evenodd" clip-rule="evenodd" d="M7.47854 28.2109C6.84049 28.8489 6.84049 29.8834 7.47854 30.5215C8.11659 31.1595 9.15107 31.1595 9.78912 30.5215L23.0749 17.2356C23.4144 16.8962 23.5733 16.4445 23.5515 16C23.5733 15.5555 23.4144 15.1038 23.0749 14.7644L9.78911 1.47853C9.15106 0.840485 8.11658 0.840483 7.47854 1.47853C6.84049 2.11658 6.84049 3.15106 7.47854 3.78911L19.6894 16L7.47854 28.2109Z" fill="#313131"/>
<path d="M7.47854 30.5215L7.12498 30.875L7.47854 30.5215ZM7.47854 28.2109L7.12498 27.8573L7.12498 27.8573L7.47854 28.2109ZM9.78912 30.5215L10.1427 30.875V30.875L9.78912 30.5215ZM23.0749 17.2356L22.7214 16.8821L22.7214 16.8821L23.0749 17.2356ZM23.5515 16L23.0521 15.9756L23.0509 16L23.0521 16.0244L23.5515 16ZM23.0749 14.7644L23.4285 14.4108L23.0749 14.7644ZM9.78911 1.47853L10.1427 1.12498L10.1427 1.12498L9.78911 1.47853ZM7.47854 1.47853L7.83209 1.83209L7.83209 1.83209L7.47854 1.47853ZM7.47854 3.78911L7.83209 3.43556L7.83209 3.43556L7.47854 3.78911ZM19.6894 16L20.043 16.3536L20.3965 16L20.043 15.6464L19.6894 16ZM7.83209 30.1679C7.3893 29.7251 7.3893 29.0072 7.83209 28.5644L7.12498 27.8573C6.29167 28.6906 6.29167 30.0417 7.12498 30.875L7.83209 30.1679ZM9.43556 30.1679C8.99278 30.6107 8.27488 30.6107 7.83209 30.1679L7.12498 30.875C7.95829 31.7083 9.30936 31.7083 10.1427 30.875L9.43556 30.1679ZM22.7214 16.8821L9.43556 30.1679L10.1427 30.875L23.4285 17.5892L22.7214 16.8821ZM23.0521 16.0244C23.0673 16.3339 22.9569 16.6465 22.7214 16.8821L23.4285 17.5892C23.8719 17.1458 24.0793 16.555 24.0509 15.9756L23.0521 16.0244ZM24.0509 16.0244C24.0793 15.445 23.8719 14.8542 23.4285 14.4108L22.7214 15.1179C22.9569 15.3535 23.0673 15.6661 23.0521 15.9756L24.0509 16.0244ZM23.4285 14.4108L10.1427 1.12498L9.43556 1.83209L22.7214 15.1179L23.4285 14.4108ZM10.1427 1.12498C9.30936 0.29167 7.95829 0.291666 7.12498 1.12498L7.83209 1.83209C8.27487 1.3893 8.99277 1.3893 9.43556 1.83209L10.1427 1.12498ZM7.12498 1.12498C6.29167 1.95829 6.29167 3.30935 7.12498 4.14266L7.83209 3.43556C7.3893 2.99277 7.3893 2.27487 7.83209 1.83209L7.12498 1.12498ZM7.12498 4.14266L19.3359 16.3536L20.043 15.6464L7.83209 3.43556L7.12498 4.14266ZM7.83209 28.5644L20.043 16.3536L19.3359 15.6464L7.12498 27.8573L7.83209 28.5644Z" fill="#FBC405"/>
</svg>
