<svg width="41" height="12" viewBox="0 0 41 12" fill="none" xmlns="http://www.w3.org/2000/svg">
<path d="M10.4539 8.60091C10.4539 6.97966 9.10784 5.66724 7.44647 5.66724C5.78593 5.66724 4.43945 6.97966 4.43945 8.60091C4.43945 8.72687 4.45021 8.84878 4.46594 8.96949C4.65214 10.4151 5.91462 11.5346 7.44605 11.5346C9.02011 11.5346 10.3091 10.3542 10.4407 8.8512C10.4477 8.76804 10.4539 8.68528 10.4539 8.60091ZM5.94027 7.49518L6.55392 8.09306C6.50592 8.1734 6.46951 8.25938 6.44551 8.35183H5.58069C5.62538 8.0321 5.75117 7.74103 5.94027 7.49518ZM5.5782 8.85968H6.44882C6.47365 8.95011 6.50923 9.0365 6.55765 9.11361L5.94358 9.71391C5.75324 9.46927 5.62331 9.1778 5.5782 8.85968ZM7.18661 10.4236C6.86137 10.3796 6.56427 10.2549 6.31434 10.0704L6.92551 9.4733C7.00578 9.51932 7.09433 9.55243 7.18702 9.57625L7.18661 10.4236ZM7.18661 7.62477C7.09185 7.64899 7.00289 7.68532 6.92013 7.73336L6.30813 7.13629C6.5593 6.94979 6.85847 6.82585 7.18661 6.78144V7.62477ZM7.70633 6.78064C8.03488 6.82504 8.33405 6.94898 8.58522 7.13549L7.97322 7.73256C7.89047 7.68532 7.80191 7.64818 7.70633 7.62396V6.78064ZM7.70633 10.4228V9.57584C7.79985 9.55202 7.88757 9.51811 7.96784 9.4725L8.57984 10.0696C8.3295 10.2541 8.0324 10.3784 7.70633 10.4228ZM8.95267 9.71593L8.33612 9.11361C8.3837 9.03489 8.42343 8.95092 8.44826 8.85968H9.31225C9.26632 9.1778 9.14301 9.47128 8.95267 9.71593ZM8.44826 8.35223C8.42384 8.25979 8.38784 8.17461 8.33943 8.09346L8.95308 7.49518C9.14301 7.74063 9.2688 8.0317 9.31308 8.35183L8.44826 8.35223Z" fill="#ACACAC"/>
<path d="M31.911 5.66724C30.2505 5.66724 28.9044 6.97966 28.9044 8.60091C28.9044 8.72687 28.9148 8.84878 28.9301 8.96949C29.1163 10.4151 30.3792 11.5346 31.9102 11.5346C33.4851 11.5346 34.7736 10.3542 34.9048 8.8512C34.9114 8.76845 34.9176 8.68569 34.9176 8.60131C34.9193 6.97966 33.5728 5.66724 31.911 5.66724ZM30.4052 7.49518L31.0189 8.09306C30.9709 8.1734 30.9345 8.25938 30.9096 8.35183H30.0457C30.0903 8.0321 30.2157 7.74103 30.4052 7.49518ZM30.0432 8.85968H30.9138C30.9394 8.95011 30.9742 9.0365 31.023 9.11361L30.4085 9.71431C30.2178 9.46927 30.0883 9.1778 30.0432 8.85968ZM31.6512 10.4236C31.3259 10.3796 31.0292 10.2549 30.7793 10.0704L31.3909 9.4733C31.4712 9.51932 31.5593 9.55243 31.652 9.57625L31.6512 10.4236ZM31.6512 7.62477C31.5564 7.64899 31.4683 7.68532 31.3851 7.73336L30.7731 7.13629C31.0239 6.94979 31.3234 6.82585 31.6512 6.78144V7.62477ZM32.1709 6.78064C32.4998 6.82504 32.799 6.94898 33.0502 7.13549L32.4382 7.73256C32.3554 7.68532 32.2665 7.64818 32.1709 7.62396V6.78064ZM32.1709 10.4228V9.57584C32.2648 9.55202 32.3521 9.51811 32.4332 9.4725L33.0452 10.0696C32.7945 10.2541 32.4974 10.3784 32.1709 10.4228ZM33.418 9.71593L32.8011 9.11361C32.8487 9.03489 32.8888 8.95092 32.9132 8.85968H33.7776C33.7313 9.1778 33.608 9.47128 33.418 9.71593ZM32.9128 8.35223C32.8888 8.25979 32.8524 8.17461 32.8044 8.09346L33.4176 7.49559C33.6071 7.74103 33.7329 8.0321 33.7772 8.35223H32.9128Z" fill="#ACACAC"/>
<path d="M40.3705 5.11774C36.9361 2.22484 32.8399 2.08072 32.8399 2.08072L30.4726 1.35568C30.1366 1.25274 29.7791 1.434 29.6715 1.761L29.4837 2.33667L25.129 2.65438L25.0396 1.80782C25.0119 1.5434 24.7797 1.34438 24.507 1.35165L24.2186 1.35932C23.9364 1.36699 23.7113 1.59185 23.7113 1.86757V2.82313L17.1734 3.11338C17.317 2.64509 17.0029 2.3508 17.0029 2.3508L19.712 1.10054C19.8775 1.02425 19.9843 0.863171 19.9888 0.684736C19.9926 0.506302 19.8928 0.340382 19.7306 0.257624L19.4137 0.0945304C19.1989 -0.0156792 18.9457 -0.0302135 18.7193 0.0545631C17.7213 0.427984 14.7825 1.55471 11.7813 2.95796C7.34713 3.26154 2.42013 4.10245 1.23503 4.84727C0.0495223 5.59249 -0.0646838 6.51373 0.0230398 7.46969C0.150901 8.85639 1.22469 9.98271 2.63282 10.206L4.57474 10.5144L4.63598 10.514C4.32605 10.0824 4.11543 9.57538 4.04426 9.02272C4.02646 8.88465 4.01446 8.74497 4.01446 8.60166C4.01446 6.75636 5.55335 5.2546 7.44561 5.2546C9.33788 5.2546 10.8776 6.75636 10.8776 8.60166C10.8776 8.69653 10.8706 8.7914 10.8635 8.88385C10.8126 9.46436 10.6053 10.0013 10.2879 10.4587L28.6884 10.2782L28.9408 10.2693C28.719 9.8939 28.5671 9.47365 28.5088 9.02272C28.491 8.88465 28.479 8.74497 28.479 8.60166C28.479 6.75636 30.0187 5.2546 31.9102 5.2546C33.8028 5.2546 35.3421 6.75636 35.3421 8.60166C35.3421 8.69653 35.3355 8.7914 35.3285 8.88385C35.2921 9.29441 35.1783 9.68236 35.0032 10.036L39.2359 9.87371L39.5193 9.56932C40.2393 8.79624 40.7367 7.85078 40.9598 6.82902C41.0988 6.19683 40.8716 5.53961 40.3705 5.11774Z" fill="#ACACAC"/>
</svg>
