<svg width="41" height="16" viewBox="0 0 41 16" fill="none" xmlns="http://www.w3.org/2000/svg">
<path d="M6.55483 9.18335C4.7662 9.18335 3.3158 10.5972 3.3158 12.343C3.3158 12.4782 3.327 12.6102 3.34443 12.7406C3.54487 14.2981 4.9044 15.5034 6.55483 15.5034C8.25092 15.5034 9.63991 14.2313 9.78059 12.6122C9.78806 12.5227 9.7947 12.4341 9.7947 12.3422C9.79511 10.5976 8.34471 9.18335 6.55483 9.18335ZM4.93262 11.1522L5.5937 11.7972C5.54224 11.8835 5.50199 11.9758 5.47626 12.0754H4.5446C4.59315 11.7304 4.72885 11.4166 4.93262 11.1522ZM4.54169 12.6219H5.47958C5.50614 12.7187 5.54515 12.8118 5.59661 12.896L4.93428 13.5418C4.7301 13.279 4.59108 12.9645 4.54169 12.6219ZM6.27513 14.3066C5.92445 14.2592 5.60532 14.1252 5.33558 13.9264L5.99417 13.2839C6.08049 13.3333 6.17594 13.3693 6.27513 13.3944V14.3066ZM6.27513 11.2919C6.17304 11.317 6.07759 11.3571 5.98878 11.4085L5.32894 10.7644C5.59993 10.5636 5.92196 10.4304 6.27513 10.3826V11.2919ZM6.8362 10.3826C7.18978 10.4304 7.5114 10.5636 7.78239 10.7648L7.12255 11.4085C7.03374 11.3571 6.93829 11.317 6.8362 11.2919V10.3826ZM6.8362 14.3062V13.3944C6.9358 13.3689 7.03042 13.3329 7.11715 13.2831L7.77616 13.9264C7.506 14.124 7.18646 14.2584 6.8362 14.3062ZM8.17829 13.5442L7.51389 12.8952C7.56535 12.8106 7.60809 12.7195 7.63465 12.6215H8.56548C8.51568 12.9645 8.38247 13.2811 8.17829 13.5442ZM7.63465 12.0746C7.60851 11.9758 7.56867 11.8826 7.51721 11.7964L8.17829 11.1514C8.38289 11.4158 8.51776 11.73 8.56631 12.0737L7.63465 12.0746Z" fill="#1A62CF"/>
<path d="M33.8238 9.18335C32.0351 9.18335 30.5847 10.5972 30.5847 12.343C30.5847 12.4782 30.5959 12.6102 30.6134 12.7406C30.8134 14.2981 32.1733 15.5034 33.8233 15.5034C35.5194 15.5034 36.9088 14.2313 37.0491 12.6122C37.0566 12.5227 37.0632 12.4341 37.0632 12.3422C37.064 10.5976 35.6136 9.18335 33.8238 9.18335ZM32.2011 11.1522L32.8626 11.7972C32.8112 11.8835 32.7705 11.9758 32.7452 12.0754H31.8135C31.8621 11.7304 31.9974 11.4166 32.2011 11.1522ZM31.8106 12.6219H32.7485C32.7751 12.7187 32.8141 12.8118 32.8655 12.896L32.2032 13.5414C31.9994 13.279 31.86 12.9645 31.8106 12.6219ZM33.544 14.3066C33.1934 14.2592 32.8742 14.1252 32.6045 13.9264L33.2631 13.2839C33.3494 13.3333 33.4449 13.3693 33.544 13.3944V14.3066ZM33.544 11.2919C33.442 11.317 33.3465 11.3571 33.2581 11.4085L32.5979 10.7644C32.8689 10.5636 33.1913 10.4304 33.544 10.3826V11.2919ZM34.1047 10.3826C34.4583 10.4304 34.7799 10.5636 35.0505 10.7648L34.3906 11.4085C34.3018 11.3571 34.2064 11.317 34.1047 11.2919V10.3826ZM34.1047 14.3062V13.3944C34.2039 13.3689 34.2989 13.3329 34.3857 13.2831L35.0447 13.9264C34.7745 14.124 34.4558 14.2584 34.1047 14.3062ZM35.4468 13.5442L34.7824 12.8952C34.8339 12.8106 34.8766 12.7195 34.9032 12.6215H35.834C35.7842 12.9645 35.6518 13.2811 35.4468 13.5442ZM34.904 12.0746C34.8778 11.9758 34.838 11.8826 34.7865 11.7964L35.4476 11.1514C35.6522 11.4158 35.7871 11.73 35.8361 12.0737L34.904 12.0746Z" fill="#1A62CF"/>
<path d="M40.721 8.17816L40.0985 7.59797L40.0997 5.76754C40.1001 5.28696 39.918 4.82378 39.588 4.46749L37.2869 1.98117V1.97995C37.2757 1.46334 36.8955 1.02688 36.3751 0.931738C33.6391 0.4301 25.1499 -0.86671 18.4308 0.894488C14.2796 1.98238 10.0591 4.17234 10.0591 4.17234C10.0591 4.17234 2.73025 5.08331 0.973991 7.31659C0.362289 8.09394 0.105822 9.11503 0.0128629 10.0349C-0.117031 11.3204 0.749479 12.4941 2.04053 12.7779L2.71822 12.9269C2.71241 12.8909 2.70369 12.8557 2.69913 12.8184C2.67672 12.65 2.66551 12.4929 2.66551 12.3419C2.66551 10.2491 4.41098 8.54659 6.55609 8.54659C8.70161 8.54659 10.4471 10.2491 10.4471 12.3419C10.4471 12.4516 10.4396 12.5577 10.4305 12.665C10.4193 12.7941 10.4006 12.9212 10.3761 13.0459L30.0149 13.0848C29.9971 12.9966 29.9792 12.9087 29.9676 12.8184C29.9452 12.65 29.934 12.4929 29.934 12.3419C29.934 10.2491 31.6795 8.54659 33.8246 8.54659C35.9701 8.54659 37.7156 10.2491 37.7156 12.3419C37.7156 12.4516 37.7081 12.5577 37.699 12.665C37.6865 12.8127 37.6616 12.9577 37.6317 13.0998L37.8998 13.1002L39.017 12.503C40.1823 11.8807 40.9268 10.7062 40.977 9.4114L40.9994 8.84498C41.0086 8.59477 40.9077 8.35266 40.721 8.17816ZM13.9198 4.42984L14.2202 3.25854C14.2202 3.25854 18.769 0.937 26.3821 1.18964V4.6509L14.1891 5.5894C14.1891 5.5894 14.2547 4.84686 13.9198 4.42984ZM33.4569 4.10675L27.7237 4.54806V1.26252C29.6091 1.39613 31.6579 1.68642 33.857 2.20466C34.0794 2.25689 34.2578 2.41803 34.3288 2.63018C34.4002 2.84233 34.3537 3.07554 34.2056 3.24559L33.4569 4.10675Z" fill="#1A62CF"/>
</svg>
