<svg width="30" height="30" viewBox="0 0 30 30" fill="none" xmlns="http://www.w3.org/2000/svg">
<path d="M15.3666 14.7594C17.8126 14.7594 19.7957 12.3509 19.7957 9.37975C19.7957 6.40856 19.1446 4 15.3666 4C11.5886 4 10.9374 6.40856 10.9374 9.37975C10.9374 12.3509 12.9205 14.7594 15.3666 14.7594Z" fill="white"/>
<path d="M7.00087 22.9735C6.99936 22.9224 7.00012 22.7923 7.00087 22.9735V22.9735Z" fill="white"/>
<path d="M23.7319 23.115C23.7327 22.7709 23.7343 23.0654 23.7319 23.115V23.115Z" fill="white"/>
<path d="M23.7225 22.7563C23.6405 17.5805 22.9645 16.1057 17.7918 15.1721C17.7918 15.1721 17.0637 16.1 15.3666 16.1C13.6694 16.1 12.9412 15.1721 12.9412 15.1721C7.82491 16.0955 7.10784 17.5484 7.01355 22.5881C7.00582 22.9997 7.00224 23.0213 7.00085 22.9735C7.00117 23.063 7.00155 23.2286 7.00155 23.5173C7.00155 23.5173 8.23304 25.9999 15.3666 25.9999C22.5 25.9999 23.7316 23.5173 23.7316 23.5173C23.7316 23.3318 23.7317 23.2028 23.7319 23.1151C23.7305 23.1446 23.7278 23.0873 23.7225 22.7563Z" fill="white"/>
</svg>
