<svg width="35" height="16" viewBox="0 0 35 16" fill="none" xmlns="http://www.w3.org/2000/svg">
<path d="M27.9977 12.9302C27.9977 13.0611 28.008 13.1891 28.024 13.3163C28.209 14.8289 29.4646 15.9999 30.9887 15.9999C32.5541 15.9999 33.837 14.7644 33.9667 13.1927C33.9738 13.1059 33.9798 13.0184 33.9798 12.9302C33.9798 11.2349 32.6404 9.86011 30.9887 9.86011C29.3368 9.86047 27.9977 11.2349 27.9977 12.9302ZM32.845 12.6699H31.9854C31.9613 12.5737 31.9243 12.4836 31.8767 12.3997L32.4869 11.7734C32.6759 12.0304 32.8006 12.3356 32.845 12.6699ZM32.4869 14.0972L31.8728 13.4672C31.9211 13.3841 31.9598 13.2959 31.984 13.2011H32.8436C32.7981 13.5339 32.6759 13.8409 32.4869 14.0972ZM31.248 13.9518C31.34 13.9273 31.4271 13.8912 31.507 13.8427L32.1151 14.4676C31.8661 14.6601 31.5716 14.7906 31.2477 14.8369L31.248 13.9518ZM31.248 11.026C31.5741 11.0723 31.8714 11.2021 32.1214 11.3975L31.5119 12.0231C31.4302 11.9728 31.3418 11.9349 31.2477 11.9094L31.248 11.026ZM29.4902 11.7734L30.1008 12.3997C30.0528 12.4832 30.0162 12.574 29.9921 12.6699H29.1325C29.1773 12.3356 29.3019 12.0304 29.4902 11.7734ZM30.7298 11.9094C30.6357 11.9345 30.5476 11.9728 30.4655 12.0231L29.856 11.3972C30.1061 11.2025 30.4037 11.0727 30.7295 11.026L30.7298 11.9094ZM29.8617 14.468L30.4695 13.8438C30.5497 13.8923 30.6378 13.9273 30.7291 13.9518V14.8373C30.4062 14.791 30.1107 14.6609 29.8617 14.468ZM29.1297 13.2011H29.9956C30.0201 13.2959 30.0567 13.3852 30.1043 13.4676L29.4927 14.095C29.3037 13.8395 29.1751 13.5343 29.1297 13.2011Z" fill="#ACACAC"/>
<path d="M3.26746 12.9302C3.26746 13.0611 3.27811 13.1891 3.29374 13.3163C3.47879 14.8289 4.7344 15.9999 6.25852 15.9999C7.8242 15.9999 9.10715 14.7644 9.2368 13.1927C9.24426 13.1059 9.24994 13.0184 9.24994 12.9302C9.24994 11.2349 7.91087 9.86011 6.25888 9.86011C4.60688 9.86011 3.26746 11.2349 3.26746 12.9302ZM8.1151 12.6699H7.25519C7.23139 12.5737 7.19445 12.4836 7.14685 12.3997L7.75707 11.7734C7.94568 12.0304 8.07035 12.3356 8.1151 12.6699ZM7.75672 14.0972L7.14295 13.4672C7.1909 13.3841 7.22997 13.2959 7.25412 13.2011H8.11368C8.06822 13.5339 7.94568 13.8409 7.75672 14.0972ZM6.51745 13.9518C6.60945 13.9273 6.69683 13.8912 6.77674 13.8427L7.38483 14.4676C7.13584 14.6601 6.84103 14.7906 6.5171 14.8369L6.51745 13.9518ZM6.51745 11.026C6.84387 11.0723 7.14081 11.2021 7.39087 11.3975L6.78172 12.0231C6.70002 11.9728 6.61158 11.9349 6.5171 11.9094L6.51745 11.026ZM4.75997 11.7734L5.3709 12.3997C5.32295 12.4832 5.28636 12.574 5.26221 12.6699H4.40229C4.44705 12.3356 4.57172 12.0304 4.75997 11.7734ZM5.99959 11.9094C5.90546 11.9345 5.81702 11.9728 5.73532 12.0231L5.12582 11.3972C5.37623 11.2025 5.67352 11.0727 5.99959 11.026V11.9094ZM5.13185 14.468L5.73959 13.8438C5.81986 13.8923 5.90759 13.9273 5.99923 13.9518V14.8373C5.67601 14.791 5.38084 14.6609 5.13185 14.468ZM4.39909 13.2011H5.26505C5.28956 13.2959 5.32614 13.3852 5.37338 13.4676L4.76174 14.095C4.57349 13.8395 4.44491 13.5343 4.39909 13.2011Z" fill="#ACACAC"/>
<path d="M0.216379 13.6368L2.61392 13.5985C2.60362 13.5358 2.59048 13.4739 2.58231 13.41C2.56064 13.2361 2.55034 13.0801 2.55034 12.931C2.55034 10.8321 4.2137 9.12518 6.25818 9.12518C8.30337 9.12518 9.96673 10.8329 9.96673 12.931C9.96673 13.0404 9.95998 13.1476 9.95146 13.2558C9.94506 13.332 9.93263 13.4064 9.92197 13.4815L27.2919 13.2015C27.2844 13.1082 27.2802 13.0178 27.2802 12.9314C27.2802 10.8325 28.9435 9.12555 30.9884 9.12555C32.851 9.12555 34.3936 10.5441 34.6536 12.3834C34.8606 11.9171 35.0606 11.2784 34.9828 10.6539C34.8344 9.46606 33.8256 8.31291 33.7663 7.73287C33.707 7.15282 33.956 6.67669 33.8075 5.85457C33.659 5.03245 32.2681 2.31891 30.8591 1.39799C29.8354 0.728988 29.098 0.273632 25.989 0.0906147C21.6092 -0.167141 18.6032 0.126708 15.9638 0.950286C14.3945 1.44028 9.02298 4.30876 7.39443 5.23442C5.46646 6.33034 4.68752 6.49987 3.35556 6.99496C1.81651 7.56698 0.838673 8.82222 0.452936 9.77085C0.0671986 10.7195 -0.213758 11.9011 0.216379 13.6368ZM24.8542 5.21146L24.3939 1.20184C26.9438 1.24778 29.59 1.45377 29.8223 2.37104C29.9601 2.91462 29.2628 4.21215 28.4278 4.59386C27.7828 4.88881 26.7822 5.00037 24.8542 5.21146ZM12.4101 4.61902L12.7013 3.7444C16.1506 1.84313 17.9099 1.18835 22.1864 1.18835C22.3821 1.18835 22.5845 1.18835 22.7909 1.18835L22.2997 5.46411C17.8154 5.8728 12.5223 6.20748 12.5223 6.20748C12.9482 5.30953 12.4101 4.61902 12.4101 4.61902Z" fill="#ACACAC"/>
</svg>
