<svg width="30" height="30" viewBox="0 0 30 30" fill="current" xmlns="http://www.w3.org/2000/svg">
<g clip-path="url(#clip0_936_36201)">
<path d="M26 15C26 21.0751 21.0751 26 15 26C8.92488 26 4 21.0751 4 15C4 8.92488 8.92488 4 15 4C21.0751 4 26 8.92488 26 15ZM5.37361 15C5.37361 20.3165 9.68348 24.6264 15 24.6264C20.3165 24.6264 24.6264 20.3165 24.6264 15C24.6264 9.68348 20.3165 5.37361 15 5.37361C9.68348 5.37361 5.37361 9.68348 5.37361 15Z" fill="#1A62CF"/>
<path d="M10.3897 11.4792L12.3748 16.7541L14.3552 11.4792H15.9008V18.3611H14.7097V16.0924L14.8279 13.0579L12.7955 18.3611H11.94L9.9123 13.0626L10.0304 16.0924V18.3611H8.83936V11.4792H10.3897Z" fill="#1A62CF"/>
<path d="M22.151 12.4435H20.0051V18.3611H18.8188V12.4435H16.6918V11.4792H22.151V12.4435Z" fill="#1A62CF"/>
</g>
<defs>
<clipPath id="clip0_936_36201">
<rect width="22" height="22" fill="white" transform="translate(4 4)"/>
</clipPath>
</defs>
</svg>
