<svg width="10" height="11" viewBox="0 0 10 11" fill="none" xmlns="http://www.w3.org/2000/svg">
<path d="M9.36454 1.80371L1.12375 10.0445C0.916975 10.2513 0.581352 10.2513 0.374582 10.0445C0.167812 9.83773 0.167812 9.50211 0.374582 9.29534L8.61538 1.05454C8.82215 0.847774 9.15777 0.847774 9.36454 1.05454C9.57131 1.26131 9.57131 1.59694 9.36454 1.80371Z" fill="white"/>
<path d="M1.12378 1.0544L9.36457 9.2952C9.57134 9.50197 9.57134 9.83759 9.36457 10.0444C9.1578 10.2511 8.82218 10.2511 8.61541 10.0444L0.374612 1.80357C0.167842 1.5968 0.167842 1.26117 0.374612 1.0544C0.581382 0.847635 0.917006 0.847635 1.12378 1.0544Z" fill="white"/>
</svg>
