<svg width="41" height="15" viewBox="0 0 41 15" fill="none" xmlns="http://www.w3.org/2000/svg">
<path d="M7.15696 8.19653C5.44847 8.19653 4.06311 9.5477 4.06311 11.2149C4.06311 11.3435 4.07388 11.47 4.09045 11.594C4.28227 13.0818 5.58021 14.2325 7.15655 14.2325C8.77556 14.2325 10.1029 13.0184 10.2376 11.472C10.2446 11.3875 10.2504 11.3014 10.2504 11.2145C10.2508 9.5477 8.86587 8.19653 7.15696 8.19653ZM5.60838 10.0776L6.23892 10.6931C6.19003 10.7752 6.1515 10.8637 6.12665 10.9583H5.2376C5.28317 10.6301 5.41201 10.3302 5.60838 10.0776ZM5.23346 11.4809H6.12955C6.15482 11.5738 6.1921 11.6619 6.24182 11.7428L5.60962 12.3592C5.41367 12.1086 5.28193 11.8087 5.23346 11.4809ZM6.88934 13.0899C6.55418 13.0442 6.24969 12.9161 5.992 12.7265L6.62088 12.1126C6.70374 12.1599 6.79447 12.1947 6.88934 12.2189V13.0899ZM6.88934 10.211C6.79198 10.236 6.70084 10.2732 6.61591 10.3221L5.98579 9.70735C6.24472 9.51536 6.55211 9.38845 6.88934 9.34278V10.211ZM7.425 9.34197C7.76223 9.38764 8.07004 9.51536 8.32855 9.70694L7.69884 10.3217C7.61433 10.2728 7.52236 10.2356 7.42542 10.2105L7.425 9.34197ZM7.425 13.0891V12.2193C7.52029 12.1947 7.61019 12.1603 7.69304 12.1126L8.32234 12.7265C8.06465 12.9161 7.75974 13.0434 7.425 13.0891ZM8.70596 12.362L8.0717 11.7424C8.12141 11.6611 8.1616 11.5742 8.18687 11.4813H9.07591C9.02869 11.8079 8.90233 12.1102 8.70596 12.362ZM8.18811 10.9583C8.16284 10.8637 8.12472 10.7752 8.07584 10.6931L8.7072 10.0776C8.90233 10.3302 9.03117 10.6301 9.07757 10.9587H8.18811V10.9583Z" fill="#ACACAC"/>
<path d="M32.8461 8.19653C31.1376 8.19653 29.7523 9.5477 29.7523 11.2149C29.7523 11.3435 29.763 11.47 29.7796 11.594C29.9714 13.0818 31.2694 14.2325 32.8453 14.2325C34.4643 14.2325 35.7916 13.0184 35.9267 11.472C35.9337 11.3875 35.9395 11.3014 35.9395 11.2145C35.9404 9.5477 34.555 8.19653 32.8461 8.19653ZM31.2975 10.0776L31.9276 10.6931C31.8788 10.7752 31.8402 10.8637 31.8154 10.9583H30.9263C30.9723 10.6301 31.1012 10.3302 31.2975 10.0776ZM30.923 11.4809H31.8191C31.8444 11.5738 31.8817 11.6619 31.9314 11.7428L31.2996 12.3592C31.1028 12.1086 30.9707 11.8087 30.923 11.4809ZM32.5785 13.0899C32.2433 13.0442 31.9388 12.9161 31.6811 12.7265L32.31 12.1126C32.3929 12.1599 32.4836 12.1947 32.5785 12.2189V13.0899ZM32.5785 10.211C32.4811 10.236 32.39 10.2732 32.3051 10.3221L31.6749 9.70735C31.9339 9.51536 32.2408 9.38845 32.5785 9.34278V10.211ZM33.1146 9.34197C33.4518 9.38764 33.7596 9.51536 34.0181 9.70694L33.388 10.3217C33.3035 10.2728 33.2115 10.2348 33.1146 10.2105V9.34197ZM33.1146 13.0891V12.2193C33.2098 12.1947 33.2997 12.1603 33.3826 12.1126L34.0119 12.7265C33.7542 12.9161 33.4489 13.0434 33.1146 13.0891ZM34.3951 12.362L33.7608 11.7432C33.8106 11.6615 33.8512 11.575 33.876 11.4817H34.7651C34.7178 11.8079 34.5919 12.1102 34.3951 12.362ZM33.8773 10.9583C33.852 10.8637 33.8143 10.7752 33.765 10.6931L34.3959 10.0776C34.5915 10.3302 34.7199 10.6301 34.7667 10.9587H33.8773V10.9583Z" fill="#ACACAC"/>
<path d="M40.275 6.634V4.40052C40.275 4.0412 40.0074 3.73686 39.6436 3.68149C38.7708 3.54811 37.2234 3.29631 36.5282 3.08735C35.5315 2.78745 31.6803 1.19661 30.3468 0.897921C29.0128 0.599234 22.9982 -0.995647 17.2377 0.952485C16.2629 1.28189 11.8777 3.32702 9.2992 4.39041C8.53982 4.40658 1.02352 5.93518 0.62332 6.9828C0.223124 8.03083 0.0975969 8.53929 0.0238549 8.80523C-0.0498872 9.07118 0.0238549 10.3439 0.582306 11.2303C1.15153 11.5443 2.2473 11.7553 3.51417 11.8968C3.49967 11.8212 3.48393 11.7468 3.47399 11.6704C3.45203 11.5072 3.44168 11.358 3.44168 11.2157C3.44168 9.21709 5.10791 7.59068 7.15695 7.59068C9.20598 7.59068 10.8722 9.21669 10.8722 11.2157C10.8722 11.3184 10.8652 11.4203 10.8573 11.5205C10.8378 11.7448 10.7964 11.9627 10.7363 12.1724C10.7392 12.1724 10.7463 12.1724 10.7463 12.1724L29.1884 11.8103C29.1801 11.7638 29.1694 11.7177 29.1632 11.6704C29.1412 11.508 29.1308 11.3584 29.1308 11.2157C29.1308 9.21709 30.7971 7.59109 32.8461 7.59109C34.8951 7.59109 36.5618 9.21669 36.5618 11.2157C36.5618 11.2234 36.561 11.2299 36.5606 11.2372L36.6393 11.2307L39.7924 10.6515C39.7924 10.6515 41 10.0242 41 8.2984C41.0004 7.1473 40.275 6.634 40.275 6.634ZM21.9808 4.51652L15.0933 4.72224C15.2201 3.71544 14.609 3.4895 14.609 3.4895C17.347 1.06485 22.8653 0.982797 22.8653 0.982797L21.9808 4.51652ZM29.7104 4.20894L23.4341 4.41466L24.0029 0.983201C27.2467 0.941975 29.0998 1.64039 29.0998 1.64039L30.0265 3.09947L29.7104 4.20894ZM33.2488 4.18792H31.5001L29.7518 1.84572C31.0635 2.35498 32.1133 2.85697 32.7384 3.17424C33.1179 3.36663 33.325 3.77768 33.2488 4.18792Z" fill="#ACACAC"/>
</svg>
