<svg width="41" height="15" viewBox="0 0 41 15" fill="none" xmlns="http://www.w3.org/2000/svg">
<path d="M7.15925 8.29602C5.5398 8.29602 4.22668 9.57589 4.22668 11.1567C4.22668 11.2794 4.23703 11.399 4.25276 11.5169C4.43408 12.9268 5.66564 14.0185 7.15925 14.0185C8.69466 14.0185 9.95189 12.8671 10.0802 11.4014C10.0868 11.321 10.0926 11.2399 10.0926 11.1575C10.0926 9.57589 8.77994 8.29602 7.15925 8.29602ZM5.69007 10.0783L6.28867 10.6619C6.24189 10.7399 6.20629 10.8239 6.18269 10.9139H5.33944C5.3829 10.6017 5.50544 10.3186 5.69007 10.0783ZM5.33695 11.4095H6.186C6.21043 11.4975 6.2452 11.5815 6.29198 11.6571L5.69255 12.2423C5.50751 12.004 5.38083 11.7197 5.33695 11.4095ZM6.9059 12.9345C6.58838 12.8917 6.29902 12.7701 6.05478 12.5896L6.65089 12.008C6.72913 12.0524 6.81524 12.0848 6.90548 12.1082L6.9059 12.9345ZM6.9059 10.2051C6.81317 10.2286 6.72665 10.2641 6.64634 10.3105L6.04939 9.72815C6.29446 9.54641 6.58631 9.42565 6.9059 9.38284V10.2051ZM7.4126 9.38204C7.73301 9.42485 8.02486 9.5456 8.26993 9.72735L7.67298 10.3097C7.59226 10.2637 7.50574 10.2277 7.4126 10.2039V9.38204ZM7.4126 12.9337V12.1082C7.50367 12.0848 7.58936 12.0516 7.6676 12.0076L8.26413 12.5896C8.02072 12.7693 7.73094 12.8909 7.4126 12.9337ZM8.62843 12.2443L8.02693 11.6571C8.07329 11.5803 8.11221 11.4975 8.13622 11.4095H8.97865C8.93394 11.7197 8.8143 12.0064 8.62843 12.2443ZM8.13663 10.9139C8.11303 10.8239 8.07743 10.7399 8.03065 10.6619L8.62884 10.0783C8.81389 10.3186 8.93642 10.6017 8.97989 10.9139H8.13663Z" fill="#1A62CF"/>
<path d="M32.4958 8.11377C30.8768 8.11377 29.5637 9.39364 29.5637 10.9748C29.5637 11.0976 29.5736 11.2171 29.5893 11.3351C29.7711 12.7446 31.0018 13.8363 32.4958 13.8363C34.0321 13.8363 35.2893 12.6844 35.4172 11.2192C35.4242 11.1388 35.4292 11.0576 35.4292 10.9752C35.4296 9.39324 34.1161 8.11377 32.4958 8.11377ZM31.0266 9.89647L31.6252 10.4797C31.5785 10.558 31.5429 10.6416 31.5193 10.7313H30.676C30.7195 10.4195 30.842 10.136 31.0266 9.89647ZM30.6739 11.2272H31.523C31.5474 11.3157 31.5822 11.3993 31.629 11.4748L31.0299 12.06C30.8445 11.8221 30.7174 11.537 30.6739 11.2272ZM32.2425 12.7523C31.9249 12.7094 31.636 12.5879 31.3913 12.4073L31.9875 11.8258C32.0657 11.871 32.1514 11.9025 32.242 11.9259V12.7523H32.2425ZM32.2425 10.0225C32.1497 10.0459 32.0632 10.0814 31.9829 10.1279L31.386 9.5455C31.631 9.36416 31.9229 9.243 32.242 9.20019V10.0225H32.2425ZM32.7504 9.19938C33.07 9.24219 33.3622 9.36335 33.6069 9.54469L33.01 10.1271C32.9297 10.081 32.8431 10.0451 32.7504 10.0217V9.19938ZM32.7504 12.7514V11.9259C32.8406 11.9025 32.9268 11.8694 33.0046 11.8254L33.6011 12.4073C33.3569 12.5871 33.0679 12.7082 32.7504 12.7514ZM33.9654 12.062L33.3639 11.4748C33.4099 11.3985 33.4488 11.3157 33.4736 11.2272H34.3156C34.2705 11.537 34.1504 11.8237 33.9654 12.062ZM33.4736 10.7313C33.4492 10.6416 33.4136 10.558 33.3668 10.4797L33.9658 9.89647C34.15 10.1364 34.273 10.4195 34.3169 10.7313H33.4736Z" fill="#1A62CF"/>
<path d="M40.4755 8.51608L40.2781 8.43086V6.26893C40.2781 5.71966 40.1092 5.18291 39.7921 4.72896L38.0807 2.27341C37.4801 1.41155 36.5329 0.839662 35.4735 0.699114C31.9643 0.232641 23.7305 -0.621955 18.2735 0.726578C14.2398 1.72414 9.39178 4.72936 9.39178 4.72936C9.39178 4.72936 3.1694 5.71764 1.7946 6.44986C0.741877 7.01084 0.120094 7.72974 0.0141178 8.76123C-0.0359725 9.25597 0.0551009 9.91065 0.163561 10.4583C0.290236 11.0956 0.801903 11.594 1.45556 11.7168L3.74564 12.1461C3.69141 11.9676 3.64877 11.7834 3.62435 11.5932C3.60365 11.4373 3.59372 11.2943 3.59372 11.1566C3.59372 9.23901 5.19205 7.67925 7.15758 7.67925C9.12353 7.67925 10.7227 9.23901 10.7227 11.1566C10.7227 11.2551 10.7161 11.3529 10.7086 11.4498C10.6867 11.7006 10.6341 11.9433 10.5604 12.1764H29.1564C29.064 11.9324 28.9962 11.6784 28.9622 11.411C28.9415 11.2551 28.9316 11.1122 28.9316 10.9745C28.9316 9.05727 30.5295 7.49751 32.495 7.49751C34.461 7.49751 36.0601 9.05727 36.0601 10.9745C36.0601 11.073 36.0535 11.1707 36.0461 11.2681C36.0192 11.5851 35.9442 11.8892 35.8349 12.1764H35.859L40.1733 10.8868C40.5629 10.7709 40.8485 10.4434 40.9036 10.0496L40.9918 9.42076C41.0452 9.0399 40.8349 8.67157 40.4755 8.51608ZM28.1632 0.907512V4.37517L23.0226 4.62597V0.84895C23.0499 0.848547 23.0768 0.846527 23.1049 0.846123C24.8693 0.831584 26.5898 0.85824 28.1632 0.907512ZM13.6958 3.68737V3.29279C13.6958 3.29279 16.9099 1.35581 21.5145 0.932149L21.0657 4.72169L13.6958 5.08154C13.6958 5.08154 14.0465 4.92363 14.0465 4.16071C14.0465 4.16071 14.0191 3.81903 13.6958 3.68737ZM29.1444 4.32791V2.51695L30.1044 4.28106L29.1444 4.32791ZM36.4 3.7633C36.1007 3.91556 35.77 4.00482 35.433 4.02138L31.2068 4.22735L29.4254 0.953958C32.685 1.08845 35.1014 1.313 35.5783 1.44588C36.3325 1.65629 37.0168 2.66194 36.9899 3.16193C36.9767 3.40749 36.6885 3.61548 36.4 3.7633Z" fill="#1A62CF"/>
</svg>
